# xmcd
#
# Track frame offsets: 
#        150
#        11736
#        21607
#        31490
#        41924
#        53593
#        66115
#        77495
#        90118
#        101922
#        114930
#        125520
#        134769
#        148209
#        156847
#        168628
#        179456
#        191492
#        203796
#        214956
#        228784
#        238957
#        254833
#        268756
#        281240
#
# Disc length: 3898 seconds
#
# Revision: 1
# Processed by: cddbd v1.5.2PL0 Copyright (c) Steve Scherf et al.
# Submitted via: ExactAudioCopy v1.0b1
#
DISCID=800f3819
DTITLE=Joe Tex - First on the Dial: Early Singles and Rare Gems
DYEAR=2008
DGENRE=Soul
TTITLE0=The Only Girl (I've Ever Loved)
TTITLE1=Hand Shakin', Love Makin', Girl Talkin', Son-of-a-Gun from Nex
TTITLE1=t Door
TTITLE2=Popeye Johnny
TTITLE3=Meet Me In The Church
TTITLE4=Be Your Own Judge
TTITLE5=I Let Her Get Away
TTITLE6=The Peck
TTITLE7=Someone To Take Your Place
TTITLE8=I Should Have Kissed Her More
TTITLE9=I Wanna Be Free
TTITLE10=Blood's Thicker Than Water
TTITLE11=What Should I Do
TTITLE12=One Giant Step
TTITLE13=The Rib
TTITLE14=Say Thank You
TTITLE15=Looking For My Pig
TTITLE16=Old Time Lover
TTITLE17=I'd Rather Have You
TTITLE18=I Had A Good Home, But I Left (Pt. 1)
TTITLE19=I Had A Good Home, But I Left (Pt. 2)
TTITLE20=Build Your Love On A Solid Foundation
TTITLE21=I'll Make Everyday Christmas (For My Woman)
TTITLE22=Don't Give Up
TTITLE23=Tell Me Right Now
TTITLE24=There Is A Girl
EXTD=
EXTT0=
EXTT1=
EXTT2=
EXTT3=
EXTT4=
EXTT5=
EXTT6=
EXTT7=
EXTT8=
EXTT9=
EXTT10=
EXTT11=
EXTT12=
EXTT13=
EXTT14=
EXTT15=
EXTT16=
EXTT17=
EXTT18=
EXTT19=
EXTT20=
EXTT21=
EXTT22=
EXTT23=
EXTT24=
PLAYORDER=
